<svg xmlns="http://www.w3.org/2000/svg" xmlns:xlink="http://www.w3.org/1999/xlink" width="500" zoomAndPan="magnify" viewBox="0 0 375 374.999991" height="500" preserveAspectRatio="xMidYMid meet" version="1.0"><defs><clipPath id="2357ccadeb"><path d="M 26.261719 24.539062 L 352.511719 24.539062 L 352.511719 350.789062 L 26.261719 350.789062 Z M 26.261719 24.539062 " clip-rule="nonzero"/></clipPath><clipPath id="1c6f27b527"><path d="M 163.824219 166.480469 L 214.824219 166.480469 L 214.824219 217.480469 L 163.824219 217.480469 Z M 163.824219 166.480469 " clip-rule="nonzero"/></clipPath><clipPath id="dff762d17a"><path d="M 117.640625 104.328125 L 168.640625 104.328125 L 168.640625 279.828125 L 117.640625 279.828125 Z M 117.640625 104.328125 " clip-rule="nonzero"/></clipPath><clipPath id="c1a8c58aa9"><path d="M 178.664062 89.632812 L 256.664062 89.632812 L 256.664062 140.632812 L 178.664062 140.632812 Z M 178.664062 89.632812 " clip-rule="nonzero"/></clipPath><clipPath id="9bdbb1606b"><path d="M 179.414062 241.703125 L 257.414062 241.703125 L 257.414062 292.703125 L 179.414062 292.703125 Z M 179.414062 241.703125 " clip-rule="nonzero"/></clipPath></defs><g clip-path="url(#2357ccadeb)"><path fill="#004aad" d="M 189.386719 24.539062 C 99.296875 24.539062 26.261719 97.574219 26.261719 187.664062 C 26.261719 277.753906 99.296875 350.789062 189.386719 350.789062 C 279.476562 350.789062 352.511719 277.753906 352.511719 187.664062 C 352.511719 97.574219 279.476562 24.539062 189.386719 24.539062 " fill-opacity="1" fill-rule="nonzero"/></g><g clip-path="url(#1c6f27b527)"><path fill="#ffffff" d="M 214.824219 210.753906 L 214.824219 173.203125 C 214.824219 169.476562 211.824219 166.480469 208.097656 166.480469 L 170.546875 166.480469 C 166.820312 166.480469 163.824219 169.476562 163.824219 173.203125 L 163.824219 210.753906 C 163.824219 214.480469 166.820312 217.480469 170.546875 217.480469 L 208.097656 217.480469 C 211.824219 217.480469 214.824219 214.480469 214.824219 210.753906 " fill-opacity="1" fill-rule="nonzero"/></g><g clip-path="url(#dff762d17a)"><path fill="#ffffff" d="M 161.914062 104.34375 L 124.363281 104.34375 C 120.636719 104.34375 117.640625 107.355469 117.640625 111.097656 L 117.640625 273.0625 C 117.640625 276.804688 120.636719 279.816406 124.363281 279.816406 L 161.914062 279.816406 C 165.640625 279.816406 168.640625 276.804688 168.640625 273.0625 L 168.640625 111.097656 C 168.640625 107.355469 165.640625 104.34375 161.914062 104.34375 " fill-opacity="1" fill-rule="nonzero"/></g><g clip-path="url(#c1a8c58aa9)"><path fill="#ffffff" d="M 256.65625 133.90625 L 256.65625 96.355469 C 256.65625 92.628906 253.632812 89.632812 249.875 89.632812 L 185.453125 89.632812 C 181.695312 89.632812 178.671875 92.628906 178.671875 96.355469 L 178.671875 133.90625 C 178.671875 137.632812 181.695312 140.632812 185.453125 140.632812 L 249.875 140.632812 C 253.632812 140.632812 256.65625 137.632812 256.65625 133.90625 " fill-opacity="1" fill-rule="nonzero"/></g><g clip-path="url(#9bdbb1606b)"><path fill="#ffffff" d="M 257.40625 285.976562 L 257.40625 248.425781 C 257.40625 244.699219 254.382812 241.703125 250.625 241.703125 L 186.203125 241.703125 C 182.445312 241.703125 179.421875 244.699219 179.421875 248.425781 L 179.421875 285.976562 C 179.421875 289.703125 182.445312 292.703125 186.203125 292.703125 L 250.625 292.703125 C 254.382812 292.703125 257.40625 289.703125 257.40625 285.976562 " fill-opacity="1" fill-rule="nonzero"/></g></svg>