<svg xmlns="http://www.w3.org/2000/svg" xmlns:xlink="http://www.w3.org/1999/xlink" width="500" zoomAndPan="magnify" viewBox="0 0 375 74.999997" height="100" preserveAspectRatio="xMidYMid meet" version="1.0"><defs><g/><clipPath id="8c66a5cedb"><path d="M 4.070312 5.4375 L 68.683594 5.4375 L 68.683594 70.050781 L 4.070312 70.050781 Z M 4.070312 5.4375 " clip-rule="nonzero"/></clipPath><clipPath id="bc11d032c7"><path d="M 33.292969 32.941406 L 44.902344 32.941406 L 44.902344 44.550781 L 33.292969 44.550781 Z M 33.292969 32.941406 " clip-rule="nonzero"/></clipPath><clipPath id="2afe68e218"><path d="M 21.976562 18.714844 L 33.585938 18.714844 L 33.585938 59.097656 L 21.976562 59.097656 Z M 21.976562 18.714844 " clip-rule="nonzero"/></clipPath><clipPath id="e1f1c72937"><path d="M 36.125 15.351562 L 53.792969 15.351562 L 53.792969 26.960938 L 36.125 26.960938 Z M 36.125 15.351562 " clip-rule="nonzero"/></clipPath><clipPath id="d696e8724a"><path d="M 36.125 50.160156 L 53.792969 50.160156 L 53.792969 61.769531 L 36.125 61.769531 Z M 36.125 50.160156 " clip-rule="nonzero"/></clipPath></defs><g fill="#545454" fill-opacity="1"><g transform="translate(69.79671, 48.550763)"><g><path d="M 16.140625 -33.8125 L 4.117188 -33.8125 L 4.117188 0 L 16.140625 0 C 27.109375 0 32.617188 -8.332031 32.617188 -16.714844 C 32.617188 -25.097656 27.109375 -33.8125 16.140625 -33.8125 Z M 16.140625 -4.835938 L 8.957031 -4.835938 L 8.957031 -28.976562 L 16.140625 -28.976562 C 23.898438 -28.976562 27.828125 -22.65625 27.828125 -16.714844 C 27.828125 -10.777344 23.898438 -4.835938 16.140625 -4.835938 Z M 16.140625 -4.835938 "/></g></g></g><g fill="#545454" fill-opacity="1"><g transform="translate(104.517251, 48.550763)"><g><path d="M 16.09375 0.335938 C 21.839844 0.335938 28.449219 -3.210938 28.449219 -10.011719 L 28.449219 -33.863281 L 23.566406 -33.863281 L 23.566406 -10.058594 C 23.566406 -6.371094 19.589844 -4.503906 16.09375 -4.503906 C 12.546875 -4.503906 8.574219 -6.320312 8.574219 -10.011719 L 8.574219 -33.863281 L 3.6875 -33.863281 L 3.6875 -10.058594 C 3.6875 -3.210938 10.203125 0.335938 16.09375 0.335938 Z M 16.09375 0.335938 "/></g></g></g><g fill="#545454" fill-opacity="1"><g transform="translate(136.651711, 48.550763)"><g><path d="M 29.839844 -21.746094 L 35.109375 -21.746094 C 33.289062 -30.84375 25.382812 -34.054688 18.824219 -34.054688 C 9.386719 -34.054688 2.011719 -26.820312 2.011719 -16.714844 C 2.011719 -6.65625 9.242188 0.574219 18.824219 0.574219 C 25.050781 0.574219 32.042969 -3.976562 34.390625 -10.488281 L 34.390625 -10.441406 C 34.867188 -11.589844 35.109375 -13.507812 35.347656 -16.378906 L 16.90625 -16.378906 L 16.90625 -11.445312 L 29.550781 -11.445312 C 27.539062 -6.464844 23.039062 -4.167969 18.824219 -4.167969 C 12.117188 -4.167969 6.945312 -9.484375 6.945312 -16.714844 C 6.945312 -23.898438 12.117188 -29.121094 18.824219 -29.121094 C 23.179688 -29.121094 28.449219 -27.253906 29.839844 -21.746094 Z M 29.839844 -21.746094 "/></g></g></g><g fill="#545454" fill-opacity="1"><g transform="translate(174.533023, 48.550763)"><g><path d="M 24.570312 -4.835938 L 9.003906 -4.835938 L 9.003906 -14.703125 L 24.1875 -14.703125 L 24.1875 -19.589844 L 9.003906 -19.589844 L 9.003906 -29.023438 L 24.523438 -29.023438 L 24.523438 -33.863281 L 4.117188 -33.863281 L 4.117188 0 L 24.570312 0 Z M 24.570312 -4.835938 "/></g></g></g><g fill="#545454" fill-opacity="1"><g transform="translate(201.255871, 48.550763)"><g><path d="M 20.882812 -24.859375 L 25.671875 -25.050781 C 24.808594 -31.179688 19.445312 -33.863281 14.273438 -33.863281 C 10.394531 -33.863281 6.371094 -32.328125 4.117188 -29.40625 C 2.875 -27.78125 2.25 -25.863281 2.25 -23.851562 C 2.25 -23.613281 2.300781 -23.324219 2.300781 -23.039062 L 2.300781 -23.085938 C 2.824219 -16.09375 8.957031 -14.945312 14.175781 -14.417969 C 17.53125 -14.082031 20.976562 -13.648438 21.554688 -11.113281 C 21.648438 -10.679688 21.695312 -10.296875 21.695312 -9.960938 C 21.695312 -6.515625 17.769531 -4.503906 14.175781 -4.503906 C 11.0625 -4.503906 7.28125 -6.128906 6.945312 -9.242188 L 6.945312 -9.050781 L 6.898438 -9.769531 L 2.011719 -9.675781 L 2.058594 -8.765625 C 2.683594 -2.777344 8.957031 0.289062 14.128906 0.289062 C 20.164062 0.289062 26.582031 -3.449219 26.582031 -9.914062 C 26.582031 -10.585938 26.484375 -11.398438 26.34375 -12.117188 C 25.050781 -17.480469 19.351562 -18.679688 14.75 -19.253906 C 11.015625 -19.589844 7.136719 -20.066406 7.136719 -23.949219 C 7.136719 -24.90625 7.375 -25.863281 7.949219 -26.582031 C 9.339844 -28.355469 11.878906 -29.121094 14.175781 -29.121094 C 17.050781 -29.121094 20.210938 -27.828125 20.882812 -24.859375 Z M 20.882812 -24.859375 "/></g></g></g><g fill="#545454" fill-opacity="1"><g transform="translate(229.750665, 48.550763)"><g><path d="M 10.441406 -29.265625 L 10.441406 0 L 15.277344 0 L 15.277344 -29.265625 L 25.382812 -29.265625 L 25.382812 -33.863281 L 0.289062 -33.863281 L 0.289062 -29.265625 Z M 10.441406 -29.265625 "/></g></g></g><g fill="#545454" fill-opacity="1"><g transform="translate(255.467819, 48.550763)"><g><path d="M 15.183594 -29.359375 L 21.410156 -29.359375 L 21.410156 -33.8125 L 4.117188 -33.8125 L 4.117188 -29.359375 L 10.34375 -29.359375 L 10.34375 -4.503906 L 4.117188 -4.503906 L 4.117188 0 L 21.410156 0 L 21.410156 -4.503906 L 15.183594 -4.503906 Z M 15.183594 -29.359375 "/></g></g></g><g fill="#545454" fill-opacity="1"><g transform="translate(280.945519, 48.550763)"><g><path d="M 1.675781 -16.761719 C 1.675781 -7.089844 9.386719 0.621094 19.0625 0.621094 C 28.738281 0.621094 36.496094 -7.089844 36.496094 -16.761719 C 36.496094 -26.4375 28.738281 -34.199219 19.0625 -34.199219 C 9.386719 -34.199219 1.675781 -26.4375 1.675781 -16.761719 Z M 6.65625 -16.761719 C 6.65625 -23.660156 12.164062 -29.214844 19.0625 -29.214844 C 25.960938 -29.214844 31.515625 -23.660156 31.515625 -16.761719 C 31.515625 -9.867188 25.960938 -4.359375 19.0625 -4.359375 C 12.164062 -4.359375 6.65625 -9.867188 6.65625 -16.761719 Z M 6.65625 -16.761719 "/></g></g></g><g fill="#545454" fill-opacity="1"><g transform="translate(319.449405, 48.550763)"><g><path d="M 4.117188 -33.527344 L 4.117188 0 L 8.957031 0 L 8.957031 -23.421875 L 25.144531 0 L 28.976562 0 L 28.976562 -33.527344 L 24.1875 -33.527344 L 24.1875 -9.914062 L 7.855469 -33.527344 Z M 4.117188 -33.527344 "/></g></g></g><g clip-path="url(#8c66a5cedb)"><path fill="#233dff" d="M 65.253906 5.4375 L 7.5 5.4375 C 5.601562 5.4375 4.070312 6.964844 4.070312 8.867188 L 4.070312 66.617188 C 4.070312 68.519531 5.601562 70.050781 7.5 70.050781 L 65.253906 70.050781 C 67.15625 70.050781 68.683594 68.519531 68.683594 66.617188 L 68.683594 8.867188 C 68.683594 6.964844 67.15625 5.4375 65.253906 5.4375 " fill-opacity="1" fill-rule="nonzero"/></g><g clip-path="url(#bc11d032c7)"><path fill="#ffffff" d="M 44.902344 43.019531 L 44.902344 34.472656 C 44.902344 33.625 44.21875 32.941406 43.371094 32.941406 L 34.824219 32.941406 C 33.976562 32.941406 33.292969 33.625 33.292969 34.472656 L 33.292969 43.019531 C 33.292969 43.871094 33.976562 44.550781 34.824219 44.550781 L 43.371094 44.550781 C 44.21875 44.550781 44.902344 43.871094 44.902344 43.019531 " fill-opacity="1" fill-rule="nonzero"/></g><g clip-path="url(#2afe68e218)"><path fill="#ffffff" d="M 32.054688 18.71875 L 23.507812 18.71875 C 22.660156 18.71875 21.976562 19.414062 21.976562 20.273438 L 21.976562 57.542969 C 21.976562 58.402344 22.660156 59.09375 23.507812 59.09375 L 32.054688 59.09375 C 32.902344 59.09375 33.585938 58.402344 33.585938 57.542969 L 33.585938 20.273438 C 33.585938 19.414062 32.902344 18.71875 32.054688 18.71875 " fill-opacity="1" fill-rule="nonzero"/></g><g clip-path="url(#e1f1c72937)"><path fill="#ffffff" d="M 53.792969 25.429688 L 53.792969 16.882812 C 53.792969 16.035156 53.105469 15.351562 52.253906 15.351562 L 37.664062 15.351562 C 36.8125 15.351562 36.128906 16.035156 36.128906 16.882812 L 36.128906 25.429688 C 36.128906 26.28125 36.8125 26.960938 37.664062 26.960938 L 52.253906 26.960938 C 53.105469 26.960938 53.792969 26.28125 53.792969 25.429688 " fill-opacity="1" fill-rule="nonzero"/></g><g clip-path="url(#d696e8724a)"><path fill="#ffffff" d="M 53.792969 60.238281 L 53.792969 51.691406 C 53.792969 50.84375 53.105469 50.160156 52.253906 50.160156 L 37.664062 50.160156 C 36.8125 50.160156 36.128906 50.84375 36.128906 51.691406 L 36.128906 60.238281 C 36.128906 61.089844 36.8125 61.769531 37.664062 61.769531 L 52.253906 61.769531 C 53.105469 61.769531 53.792969 61.089844 53.792969 60.238281 " fill-opacity="1" fill-rule="nonzero"/></g><g fill="#545454" fill-opacity="1"><g transform="translate(73.086827, 67.122397)"><g><path d="M 4.621094 0.0976562 C 6.269531 0.0976562 8.164062 -0.921875 8.164062 -2.875 L 8.164062 -9.71875 L 6.765625 -9.71875 L 6.765625 -2.886719 C 6.765625 -1.828125 5.621094 -1.292969 4.621094 -1.292969 C 3.601562 -1.292969 2.460938 -1.816406 2.460938 -2.875 L 2.460938 -9.71875 L 1.058594 -9.71875 L 1.058594 -2.886719 C 1.058594 -0.921875 2.929688 0.0976562 4.621094 0.0976562 Z M 4.621094 0.0976562 "/></g></g></g><g fill="#545454" fill-opacity="1"><g transform="translate(82.31049, 67.122397)"><g><path d="M 2.378906 -6.515625 L 2.378906 -7.4375 L 1.03125 -7.4375 L 1.03125 0 L 2.378906 0 L 2.378906 -4.042969 C 2.378906 -5.335938 3.148438 -6.351562 4.5625 -6.351562 C 6.1875 -6.351562 6.558594 -5.390625 6.558594 -3.988281 L 6.558594 0 L 7.890625 0 L 7.890625 -4 C 7.890625 -6.132812 6.929688 -7.546875 4.660156 -7.546875 C 3.726562 -7.546875 2.929688 -7.3125 2.378906 -6.515625 Z M 2.378906 -6.515625 "/></g></g></g><g fill="#545454" fill-opacity="1"><g transform="translate(91.217986, 67.122397)"><g/></g></g><g fill="#545454" fill-opacity="1"><g transform="translate(94.640777, 67.122397)"><g><path d="M 2.789062 -7.4375 L 2.789062 -9.085938 L 1.445312 -8.824219 L 1.445312 -7.4375 L 0.328125 -7.4375 L 0.328125 -6.363281 L 1.445312 -6.363281 L 1.445312 -2.1875 C 1.445312 -0.453125 2.390625 0.0429688 3.847656 0.0429688 C 4.042969 0.0429688 4.246094 0.0273438 4.46875 0.015625 L 4.46875 -1.113281 C 4.261719 -1.101562 4.070312 -1.085938 3.902344 -1.085938 C 3.230469 -1.085938 2.789062 -1.292969 2.789062 -2.171875 L 2.789062 -6.363281 L 4.425781 -6.363281 L 4.425781 -7.4375 Z M 2.789062 -7.4375 "/></g></g></g><g fill="#545454" fill-opacity="1"><g transform="translate(99.369452, 67.122397)"><g><path d="M 2.363281 -6.515625 L 2.363281 -7.421875 L 1.03125 -7.421875 L 1.03125 0 L 2.363281 0 L 2.363281 -4.027344 C 2.363281 -5.390625 3.410156 -6.394531 4.660156 -6.394531 C 4.878906 -6.394531 5.113281 -6.363281 5.347656 -6.296875 L 5.347656 -7.480469 C 5.046875 -7.546875 4.757812 -7.589844 4.46875 -7.589844 C 3.644531 -7.589844 2.902344 -7.257812 2.363281 -6.515625 Z M 2.363281 -6.515625 "/></g></g></g><g fill="#545454" fill-opacity="1"><g transform="translate(105.142836, 67.122397)"><g><path d="M 8.757812 0 L 8.757812 -7.4375 L 7.410156 -7.4375 L 7.421875 -6.449219 C 6.765625 -7.339844 5.648438 -7.5625 4.730469 -7.5625 C 2.214844 -7.5625 0.757812 -5.761719 0.757812 -3.753906 C 0.757812 -1.703125 2.160156 0.125 4.757812 0.125 C 5.675781 0.109375 6.875 -0.191406 7.410156 -1.003906 L 7.410156 0 Z M 7.410156 -3.726562 C 7.410156 -1.9375 5.964844 -1.074219 4.730469 -1.074219 C 3.078125 -1.074219 2.101562 -2.351562 2.101562 -3.753906 C 2.101562 -5.222656 3.09375 -6.378906 4.730469 -6.378906 C 5.992188 -6.378906 7.410156 -5.5 7.410156 -3.726562 Z M 7.410156 -3.726562 "/></g></g></g><g fill="#545454" fill-opacity="1"><g transform="translate(114.79263, 67.122397)"><g><path d="M 2.417969 -6.476562 L 2.417969 -9.625 L 1.074219 -9.625 L 1.074219 0 L 2.417969 0 L 2.417969 -1.003906 C 2.957031 -0.191406 3.972656 0.109375 4.894531 0.125 C 7.492188 0.125 8.742188 -1.703125 8.742188 -3.753906 C 8.742188 -5.761719 7.4375 -7.5625 4.921875 -7.5625 C 4 -7.5625 3.066406 -7.355469 2.417969 -6.476562 Z M 2.417969 -3.726562 C 2.417969 -5.5 3.671875 -6.378906 4.921875 -6.378906 C 6.570312 -6.378906 7.394531 -5.058594 7.394531 -3.726562 C 7.394531 -2.378906 6.558594 -1.074219 4.90625 -1.074219 C 3.671875 -1.074219 2.417969 -1.9375 2.417969 -3.726562 Z M 2.417969 -3.726562 "/></g></g></g><g fill="#545454" fill-opacity="1"><g transform="translate(124.153748, 67.122397)"><g><path d="M 8.757812 0 L 8.757812 -7.4375 L 7.410156 -7.4375 L 7.421875 -6.449219 C 6.765625 -7.339844 5.648438 -7.5625 4.730469 -7.5625 C 2.214844 -7.5625 0.757812 -5.761719 0.757812 -3.753906 C 0.757812 -1.703125 2.160156 0.125 4.757812 0.125 C 5.675781 0.109375 6.875 -0.191406 7.410156 -1.003906 L 7.410156 0 Z M 7.410156 -3.726562 C 7.410156 -1.9375 5.964844 -1.074219 4.730469 -1.074219 C 3.078125 -1.074219 2.101562 -2.351562 2.101562 -3.753906 C 2.101562 -5.222656 3.09375 -6.378906 4.730469 -6.378906 C 5.992188 -6.378906 7.410156 -5.5 7.410156 -3.726562 Z M 7.410156 -3.726562 "/></g></g></g><g fill="#545454" fill-opacity="1"><g transform="translate(133.803543, 67.122397)"><g><path d="M 1.042969 -9.390625 C 1.042969 -8.867188 1.472656 -8.605469 1.882812 -8.605469 C 2.308594 -8.605469 2.722656 -8.867188 2.722656 -9.390625 C 2.722656 -9.910156 2.308594 -10.160156 1.898438 -10.160156 C 1.472656 -10.160156 1.042969 -9.898438 1.042969 -9.390625 Z M 1.210938 -0.0703125 L 1.210938 -7.519531 L 2.558594 -7.519531 L 2.558594 -0.152344 C 2.558594 1.636719 1.582031 2.324219 0.109375 2.324219 C -0.0703125 2.324219 -0.261719 2.324219 -0.46875 2.296875 L -0.46875 1.113281 C -0.359375 1.128906 -0.246094 1.128906 -0.152344 1.128906 C 0.589844 1.128906 1.210938 0.851562 1.210938 -0.0703125 Z M 1.210938 -0.0703125 "/></g></g></g><g fill="#545454" fill-opacity="1"><g transform="translate(137.418777, 67.122397)"><g><path d="M 8.730469 -3.710938 C 8.730469 -6.269531 6.75 -7.5625 4.742188 -7.5625 C 2.722656 -7.5625 0.714844 -6.28125 0.714844 -3.710938 C 0.714844 -1.15625 2.707031 0.136719 4.703125 0.136719 C 6.722656 0.136719 8.730469 -1.140625 8.730469 -3.710938 Z M 2.0625 -3.710938 C 2.0625 -5.484375 3.394531 -6.363281 4.742188 -6.363281 C 6.0625 -6.363281 7.394531 -5.472656 7.394531 -3.710938 C 7.394531 -1.964844 6.0625 -1.074219 4.730469 -1.074219 C 3.394531 -1.074219 2.0625 -1.953125 2.0625 -3.710938 Z M 2.0625 -3.710938 "/></g></g></g><g fill="#545454" fill-opacity="1"><g transform="translate(146.958594, 67.122397)"><g/></g></g><g fill="#f76f3b" fill-opacity="1"><g transform="translate(150.371977, 67.122397)"><g><path d="M 7.863281 -3.738281 C 7.863281 -6.28125 5.9375 -7.546875 4.027344 -7.546875 C 2.089844 -7.546875 0.179688 -6.28125 0.179688 -3.738281 C 0.179688 -1.195312 2.089844 0.0820312 4.015625 0.0820312 C 5.554688 0.0820312 7.078125 -0.730469 7.644531 -2.351562 L 5.292969 -2.351562 C 4.976562 -2.007812 4.523438 -1.84375 4.042969 -1.84375 C 3.382812 -1.855469 2.707031 -2.199219 2.445312 -2.886719 L 7.78125 -2.886719 C 7.835938 -3.160156 7.863281 -3.4375 7.863281 -3.738281 Z M 5.5 -4.578125 L 2.53125 -4.578125 C 2.75 -5.304688 3.339844 -5.664062 3.988281 -5.664062 C 4.6875 -5.664062 5.292969 -5.320312 5.5 -4.578125 Z M 5.5 -4.578125 "/></g></g></g><g fill="#f76f3b" fill-opacity="1"><g transform="translate(159.169507, 67.122397)"><g><path d="M 1.101562 -7.355469 L -0.0429688 -7.355469 L -0.0429688 -5.472656 L 1.074219 -5.472656 L 1.074219 0 L 3.230469 0 L 3.230469 -5.472656 L 4.796875 -5.472656 L 4.796875 -7.355469 L 3.257812 -7.355469 C 3.230469 -8 3.683594 -8.195312 4.191406 -8.195312 C 4.398438 -8.195312 4.621094 -8.164062 4.8125 -8.109375 L 4.878906 -9.734375 C 4.507812 -9.816406 4.125 -9.855469 3.753906 -9.855469 C 2.296875 -9.855469 0.976562 -9.195312 1.101562 -7.355469 Z M 1.101562 -7.355469 "/></g></g></g><g fill="#f76f3b" fill-opacity="1"><g transform="translate(164.681714, 67.122397)"><g><path d="M 0.300781 -9.074219 C 0.300781 -8.261719 0.960938 -7.863281 1.621094 -7.863281 C 2.253906 -7.863281 2.902344 -8.261719 2.902344 -9.074219 C 2.902344 -9.925781 2.242188 -10.339844 1.582031 -10.339844 C 0.949219 -10.339844 0.300781 -9.910156 0.300781 -9.074219 Z M 0.507812 -7.4375 L 2.707031 -7.4375 L 2.707031 0 L 0.507812 0 Z M 0.507812 -7.4375 "/></g></g></g><g fill="#f76f3b" fill-opacity="1"><g transform="translate(168.365681, 67.122397)"><g><path d="M 7.671875 -3.160156 L 5.527344 -3.160156 C 5.277344 -2.335938 4.605469 -1.953125 3.945312 -1.953125 C 3.121094 -1.953125 2.296875 -2.558594 2.296875 -3.726562 C 2.296875 -4.894531 3.121094 -5.5 3.945312 -5.5 C 4.605469 -5.5 5.277344 -5.101562 5.527344 -4.277344 L 7.671875 -4.277344 C 7.382812 -6.460938 5.664062 -7.535156 3.945312 -7.535156 C 2.0625 -7.535156 0.179688 -6.242188 0.179688 -3.726562 C 0.179688 -1.210938 2.0625 0.0820312 3.945312 0.0820312 C 5.664062 0.0820312 7.382812 -0.988281 7.671875 -3.160156 Z M 7.671875 -3.160156 "/></g></g></g><g fill="#f76f3b" fill-opacity="1"><g transform="translate(176.805813, 67.122397)"><g><path d="M 3.792969 -7.5625 C 1.375 -7.5625 0.191406 -5.855469 0.191406 -3.820312 C 0.191406 -1.773438 1.414062 0.0976562 3.765625 0.0976562 C 4.480469 0.0976562 5.210938 -0.109375 5.71875 -0.742188 L 5.71875 0 L 7.878906 0 L 7.878906 -7.4375 L 5.71875 -7.4375 L 5.71875 -6.667969 C 5.238281 -7.285156 4.523438 -7.5625 3.792969 -7.5625 Z M 4.027344 -1.980469 C 2.929688 -1.980469 2.363281 -2.875 2.363281 -3.765625 C 2.363281 -4.675781 2.914062 -5.566406 4.027344 -5.566406 C 4.960938 -5.566406 5.71875 -4.757812 5.71875 -3.765625 C 5.71875 -2.777344 4.960938 -1.980469 4.027344 -1.980469 Z M 4.027344 -1.980469 "/></g></g></g><g fill="#f76f3b" fill-opacity="1"><g transform="translate(185.644576, 67.122397)"><g><path d="M 5.882812 -7.4375 L 0.191406 -7.4375 L 0.191406 -5.472656 L 2.902344 -5.472656 L 0.164062 -1.304688 L 0.164062 0 L 5.910156 0 L 5.910156 -2.046875 L 3.050781 -2.046875 L 5.882812 -6.242188 Z M 5.882812 -7.4375 "/></g></g></g><g fill="#545454" fill-opacity="1"><g transform="translate(192.278224, 67.122397)"><g><path d="M 1.195312 -1.15625 L 0.191406 1.375 L 1.414062 1.375 L 2.695312 -1.15625 Z M 1.195312 -1.15625 "/></g></g></g><g fill="#545454" fill-opacity="1"><g transform="translate(195.618536, 67.122397)"><g/></g></g><g fill="#545454" fill-opacity="1"><g transform="translate(199.041327, 67.122397)"><g><path d="M 8.332031 -4.042969 C 8.179688 -6.378906 6.363281 -7.546875 4.523438 -7.546875 C 2.558594 -7.546875 0.660156 -6.269531 0.660156 -3.710938 C 0.660156 -1.15625 2.585938 0.136719 4.496094 0.136719 C 6.019531 0.136719 7.546875 -0.671875 8.109375 -2.296875 L 6.722656 -2.296875 C 6.28125 -1.457031 5.429688 -1.058594 4.507812 -1.058594 C 3.394531 -1.058594 2.007812 -1.9375 2.007812 -3.394531 L 8.304688 -3.394531 C 8.332031 -3.519531 8.34375 -3.65625 8.34375 -3.808594 C 8.34375 -3.890625 8.34375 -3.960938 8.332031 -4.042969 Z M 6.914062 -4.507812 L 2.0625 -4.507812 C 2.335938 -5.828125 3.4375 -6.363281 4.523438 -6.363281 C 5.59375 -6.363281 6.652344 -5.84375 6.914062 -4.507812 Z M 6.914062 -4.507812 "/></g></g></g><g fill="#545454" fill-opacity="1"><g transform="translate(208.113778, 67.122397)"><g><path d="M 1.964844 -5.292969 C 1.964844 -6.0625 2.734375 -6.378906 3.5625 -6.378906 C 4.371094 -6.378906 5.074219 -6.0625 5.140625 -5.402344 L 6.476562 -5.402344 C 6.378906 -6.957031 5.074219 -7.589844 3.601562 -7.589844 C 2.160156 -7.589844 0.632812 -6.984375 0.632812 -5.265625 C 0.632812 -3.601562 2.214844 -3.1875 3.546875 -3.132812 C 4.191406 -3.105469 5.347656 -2.96875 5.347656 -2.144531 C 5.347656 -1.265625 4.289062 -1.042969 3.617188 -1.042969 C 2.695312 -1.042969 1.925781 -1.457031 1.871094 -2.28125 L 0.523438 -2.28125 C 0.617188 -0.523438 2.046875 0.125 3.589844 0.125 C 4.992188 0.125 6.695312 -0.386719 6.695312 -2.117188 C 6.695312 -3.808594 5.101562 -4.246094 3.699219 -4.34375 C 3.039062 -4.386719 1.964844 -4.359375 1.964844 -5.292969 Z M 1.964844 -5.292969 "/></g></g></g><g fill="#545454" fill-opacity="1"><g transform="translate(215.275513, 67.122397)"><g><path d="M 2.789062 -7.4375 L 2.789062 -9.085938 L 1.445312 -8.824219 L 1.445312 -7.4375 L 0.328125 -7.4375 L 0.328125 -6.363281 L 1.445312 -6.363281 L 1.445312 -2.1875 C 1.445312 -0.453125 2.390625 0.0429688 3.847656 0.0429688 C 4.042969 0.0429688 4.246094 0.0273438 4.46875 0.015625 L 4.46875 -1.113281 C 4.261719 -1.101562 4.070312 -1.085938 3.902344 -1.085938 C 3.230469 -1.085938 2.789062 -1.292969 2.789062 -2.171875 L 2.789062 -6.363281 L 4.425781 -6.363281 L 4.425781 -7.4375 Z M 2.789062 -7.4375 "/></g></g></g><g fill="#545454" fill-opacity="1"><g transform="translate(220.004189, 67.122397)"><g><path d="M 6.515625 -0.976562 L 6.515625 0 L 7.792969 0 L 7.792969 -7.507812 L 6.449219 -7.507812 L 6.449219 -3.394531 C 6.449219 -2.089844 5.675781 -1.085938 4.261719 -1.085938 C 2.640625 -1.085938 2.28125 -2.046875 2.28125 -3.4375 L 2.28125 -7.507812 L 0.933594 -7.507812 L 0.933594 -3.4375 C 0.933594 -1.304688 1.910156 0.109375 4.164062 0.109375 C 5.128906 0.109375 5.964844 -0.164062 6.515625 -0.976562 Z M 6.515625 -0.976562 "/></g></g></g><g fill="#545454" fill-opacity="1"><g transform="translate(228.856708, 67.122397)"><g><path d="M 8.34375 -9.625 L 6.996094 -9.625 L 6.996094 -6.476562 C 6.351562 -7.355469 5.417969 -7.5625 4.496094 -7.5625 C 1.980469 -7.5625 0.550781 -5.882812 0.550781 -3.753906 C 0.550781 -1.539062 1.910156 0.125 4.507812 0.125 C 5.445312 0.109375 6.460938 -0.191406 6.996094 -1.003906 L 6.996094 0 L 8.34375 0 Z M 6.996094 -3.726562 C 6.996094 -1.9375 5.746094 -1.074219 4.480469 -1.074219 C 2.847656 -1.074219 1.898438 -2.199219 1.898438 -3.726562 C 1.898438 -5.058594 2.847656 -6.378906 4.496094 -6.378906 C 5.746094 -6.378906 6.996094 -5.5 6.996094 -3.726562 Z M 6.996094 -3.726562 "/></g></g></g><g fill="#545454" fill-opacity="1"><g transform="translate(238.25907, 67.122397)"><g><path d="M 0.949219 -9.347656 C 0.949219 -8.824219 1.375 -8.566406 1.789062 -8.566406 C 2.214844 -8.566406 2.625 -8.824219 2.625 -9.347656 C 2.625 -9.871094 2.214844 -10.117188 1.800781 -10.117188 C 1.375 -10.117188 0.949219 -9.855469 0.949219 -9.347656 Z M 1.113281 -7.519531 L 2.460938 -7.519531 L 2.460938 0 L 1.113281 0 Z M 1.113281 -7.519531 "/></g></g></g><g fill="#545454" fill-opacity="1"><g transform="translate(241.956782, 67.122397)"><g><path d="M 8.757812 0 L 8.757812 -7.4375 L 7.410156 -7.4375 L 7.421875 -6.449219 C 6.765625 -7.339844 5.648438 -7.5625 4.730469 -7.5625 C 2.214844 -7.5625 0.757812 -5.761719 0.757812 -3.753906 C 0.757812 -1.703125 2.160156 0.125 4.757812 0.125 C 5.675781 0.109375 6.875 -0.191406 7.410156 -1.003906 L 7.410156 0 Z M 7.410156 -3.726562 C 7.410156 -1.9375 5.964844 -1.074219 4.730469 -1.074219 C 3.078125 -1.074219 2.101562 -2.351562 2.101562 -3.753906 C 2.101562 -5.222656 3.09375 -6.378906 4.730469 -6.378906 C 5.992188 -6.378906 7.410156 -5.5 7.410156 -3.726562 Z M 7.410156 -3.726562 "/></g></g></g><g fill="#545454" fill-opacity="1"><g transform="translate(251.606576, 67.122397)"><g><path d="M 2.378906 -6.515625 L 2.378906 -7.4375 L 1.03125 -7.4375 L 1.03125 0 L 2.378906 0 L 2.378906 -4.042969 C 2.378906 -5.335938 3.148438 -6.351562 4.5625 -6.351562 C 6.1875 -6.351562 6.558594 -5.390625 6.558594 -3.988281 L 6.558594 0 L 7.890625 0 L 7.890625 -4 C 7.890625 -6.132812 6.929688 -7.546875 4.660156 -7.546875 C 3.726562 -7.546875 2.929688 -7.3125 2.378906 -6.515625 Z M 2.378906 -6.515625 "/></g></g></g><g fill="#545454" fill-opacity="1"><g transform="translate(260.514073, 67.122397)"><g><path d="M 2.789062 -7.4375 L 2.789062 -9.085938 L 1.445312 -8.824219 L 1.445312 -7.4375 L 0.328125 -7.4375 L 0.328125 -6.363281 L 1.445312 -6.363281 L 1.445312 -2.1875 C 1.445312 -0.453125 2.390625 0.0429688 3.847656 0.0429688 C 4.042969 0.0429688 4.246094 0.0273438 4.46875 0.015625 L 4.46875 -1.113281 C 4.261719 -1.101562 4.070312 -1.085938 3.902344 -1.085938 C 3.230469 -1.085938 2.789062 -1.292969 2.789062 -2.171875 L 2.789062 -6.363281 L 4.425781 -6.363281 L 4.425781 -7.4375 Z M 2.789062 -7.4375 "/></g></g></g><g fill="#545454" fill-opacity="1"><g transform="translate(265.242749, 67.122397)"><g><path d="M 8.332031 -4.042969 C 8.179688 -6.378906 6.363281 -7.546875 4.523438 -7.546875 C 2.558594 -7.546875 0.660156 -6.269531 0.660156 -3.710938 C 0.660156 -1.15625 2.585938 0.136719 4.496094 0.136719 C 6.019531 0.136719 7.546875 -0.671875 8.109375 -2.296875 L 6.722656 -2.296875 C 6.28125 -1.457031 5.429688 -1.058594 4.507812 -1.058594 C 3.394531 -1.058594 2.007812 -1.9375 2.007812 -3.394531 L 8.304688 -3.394531 C 8.332031 -3.519531 8.34375 -3.65625 8.34375 -3.808594 C 8.34375 -3.890625 8.34375 -3.960938 8.332031 -4.042969 Z M 6.914062 -4.507812 L 2.0625 -4.507812 C 2.335938 -5.828125 3.4375 -6.363281 4.523438 -6.363281 C 5.59375 -6.363281 6.652344 -5.84375 6.914062 -4.507812 Z M 6.914062 -4.507812 "/></g></g></g><g fill="#545454" fill-opacity="1"><g transform="translate(274.3152, 67.122397)"><g><path d="M 1.964844 -5.292969 C 1.964844 -6.0625 2.734375 -6.378906 3.5625 -6.378906 C 4.371094 -6.378906 5.074219 -6.0625 5.140625 -5.402344 L 6.476562 -5.402344 C 6.378906 -6.957031 5.074219 -7.589844 3.601562 -7.589844 C 2.160156 -7.589844 0.632812 -6.984375 0.632812 -5.265625 C 0.632812 -3.601562 2.214844 -3.1875 3.546875 -3.132812 C 4.191406 -3.105469 5.347656 -2.96875 5.347656 -2.144531 C 5.347656 -1.265625 4.289062 -1.042969 3.617188 -1.042969 C 2.695312 -1.042969 1.925781 -1.457031 1.871094 -2.28125 L 0.523438 -2.28125 C 0.617188 -0.523438 2.046875 0.125 3.589844 0.125 C 4.992188 0.125 6.695312 -0.386719 6.695312 -2.117188 C 6.695312 -3.808594 5.101562 -4.246094 3.699219 -4.34375 C 3.039062 -4.386719 1.964844 -4.359375 1.964844 -5.292969 Z M 1.964844 -5.292969 "/></g></g></g><g fill="#545454" fill-opacity="1"><g transform="translate(281.476935, 67.122397)"><g/></g></g><g fill="#233dff" fill-opacity="1"><g transform="translate(284.891497, 67.122397)"><g><path d="M 1.101562 -7.355469 L -0.0429688 -7.355469 L -0.0429688 -5.472656 L 1.074219 -5.472656 L 1.074219 0 L 3.230469 0 L 3.230469 -5.472656 L 4.796875 -5.472656 L 4.796875 -7.355469 L 3.257812 -7.355469 C 3.230469 -8 3.683594 -8.195312 4.191406 -8.195312 C 4.398438 -8.195312 4.621094 -8.164062 4.8125 -8.109375 L 4.878906 -9.734375 C 4.507812 -9.816406 4.125 -9.855469 3.753906 -9.855469 C 2.296875 -9.855469 0.976562 -9.195312 1.101562 -7.355469 Z M 1.101562 -7.355469 "/></g></g></g><g fill="#233dff" fill-opacity="1"><g transform="translate(290.403704, 67.122397)"><g><path d="M 7.863281 -3.738281 C 7.863281 -6.28125 5.9375 -7.546875 4.027344 -7.546875 C 2.089844 -7.546875 0.179688 -6.28125 0.179688 -3.738281 C 0.179688 -1.195312 2.089844 0.0820312 4.015625 0.0820312 C 5.554688 0.0820312 7.078125 -0.730469 7.644531 -2.351562 L 5.292969 -2.351562 C 4.976562 -2.007812 4.523438 -1.84375 4.042969 -1.84375 C 3.382812 -1.855469 2.707031 -2.199219 2.445312 -2.886719 L 7.78125 -2.886719 C 7.835938 -3.160156 7.863281 -3.4375 7.863281 -3.738281 Z M 5.5 -4.578125 L 2.53125 -4.578125 C 2.75 -5.304688 3.339844 -5.664062 3.988281 -5.664062 C 4.6875 -5.664062 5.292969 -5.320312 5.5 -4.578125 Z M 5.5 -4.578125 "/></g></g></g><g fill="#233dff" fill-opacity="1"><g transform="translate(299.201234, 67.122397)"><g><path d="M 2.53125 -9.625 L 0.328125 -9.625 L 0.328125 0 L 2.53125 0 Z M 2.53125 -9.625 "/></g></g></g><g fill="#233dff" fill-opacity="1"><g transform="translate(302.624025, 67.122397)"><g><path d="M 0.300781 -9.074219 C 0.300781 -8.261719 0.960938 -7.863281 1.621094 -7.863281 C 2.253906 -7.863281 2.902344 -8.261719 2.902344 -9.074219 C 2.902344 -9.925781 2.242188 -10.339844 1.582031 -10.339844 C 0.949219 -10.339844 0.300781 -9.910156 0.300781 -9.074219 Z M 0.507812 -7.4375 L 2.707031 -7.4375 L 2.707031 0 L 0.507812 0 Z M 0.507812 -7.4375 "/></g></g></g><g fill="#233dff" fill-opacity="1"><g transform="translate(306.307992, 67.122397)"><g><path d="M 7.671875 -3.160156 L 5.527344 -3.160156 C 5.277344 -2.335938 4.605469 -1.953125 3.945312 -1.953125 C 3.121094 -1.953125 2.296875 -2.558594 2.296875 -3.726562 C 2.296875 -4.894531 3.121094 -5.5 3.945312 -5.5 C 4.605469 -5.5 5.277344 -5.101562 5.527344 -4.277344 L 7.671875 -4.277344 C 7.382812 -6.460938 5.664062 -7.535156 3.945312 -7.535156 C 2.0625 -7.535156 0.179688 -6.242188 0.179688 -3.726562 C 0.179688 -1.210938 2.0625 0.0820312 3.945312 0.0820312 C 5.664062 0.0820312 7.382812 -0.988281 7.671875 -3.160156 Z M 7.671875 -3.160156 "/></g></g></g><g fill="#233dff" fill-opacity="1"><g transform="translate(314.748123, 67.122397)"><g><path d="M 7.863281 -3.738281 C 7.863281 -6.28125 5.9375 -7.546875 4.027344 -7.546875 C 2.089844 -7.546875 0.179688 -6.28125 0.179688 -3.738281 C 0.179688 -1.195312 2.089844 0.0820312 4.015625 0.0820312 C 5.554688 0.0820312 7.078125 -0.730469 7.644531 -2.351562 L 5.292969 -2.351562 C 4.976562 -2.007812 4.523438 -1.84375 4.042969 -1.84375 C 3.382812 -1.855469 2.707031 -2.199219 2.445312 -2.886719 L 7.78125 -2.886719 C 7.835938 -3.160156 7.863281 -3.4375 7.863281 -3.738281 Z M 5.5 -4.578125 L 2.53125 -4.578125 C 2.75 -5.304688 3.339844 -5.664062 3.988281 -5.664062 C 4.6875 -5.664062 5.292969 -5.320312 5.5 -4.578125 Z M 5.5 -4.578125 "/></g></g></g><g fill="#233dff" fill-opacity="1"><g transform="translate(323.545654, 67.122397)"><g><path d="M 0.273438 -5.046875 C 0.273438 -3.410156 1.730469 -2.875 3.132812 -2.75 C 3.492188 -2.722656 4.316406 -2.789062 4.316406 -2.253906 C 4.316406 -2.007812 3.960938 -1.800781 3.421875 -1.800781 C 2.914062 -1.800781 2.351562 -1.992188 2.335938 -2.503906 L 0.164062 -2.503906 C 0.191406 -0.605469 1.539062 0.191406 3.3125 0.191406 C 4.960938 0.191406 6.488281 -0.441406 6.488281 -2.308594 C 6.488281 -4.070312 4.90625 -4.730469 3.355469 -4.769531 C 3.039062 -4.785156 2.460938 -4.796875 2.460938 -5.183594 C 2.460938 -5.582031 2.902344 -5.691406 3.21875 -5.691406 C 3.671875 -5.691406 4.246094 -5.648438 4.261719 -5.074219 L 6.335938 -5.074219 C 6.324219 -6.804688 4.933594 -7.617188 3.339844 -7.617188 C 1.675781 -7.617188 0.273438 -6.847656 0.273438 -5.046875 Z M 0.273438 -5.046875 "/></g></g></g><g fill="#233dff" fill-opacity="1"><g transform="translate(330.624911, 67.122397)"><g/></g></g><g fill="#233dff" fill-opacity="1"><g transform="translate(334.07519, 67.122397)"><g><path d="M 1.140625 -6.902344 C 0.480469 -6.902344 -0.0429688 -6.421875 -0.0429688 -5.71875 C -0.0429688 -5.128906 0.480469 -4.550781 1.140625 -4.550781 C 1.871094 -4.550781 2.378906 -5.128906 2.378906 -5.71875 C 2.378906 -6.421875 1.871094 -6.902344 1.140625 -6.902344 Z M 1.140625 -2.308594 C 0.480469 -2.308594 -0.0429688 -1.84375 -0.0429688 -1.128906 C -0.0429688 -0.550781 0.480469 0.0429688 1.140625 0.0429688 C 1.871094 0.0429688 2.378906 -0.550781 2.378906 -1.128906 C 2.378906 -1.84375 1.871094 -2.308594 1.140625 -2.308594 Z M 1.140625 -2.308594 "/></g></g></g><g fill="#233dff" fill-opacity="1"><g transform="translate(337.37427, 67.122397)"><g><path d="M 4.496094 -9.625 L 0.671875 -9.625 L 0.671875 0 L 4.496094 0 C 7.671875 0 9.265625 -2.390625 9.265625 -4.796875 C 9.265625 -7.203125 7.671875 -9.625 4.496094 -9.625 Z M 4.496094 -2.242188 L 3.011719 -2.242188 L 3.011719 -7.394531 L 4.496094 -7.394531 C 6.117188 -7.394531 6.941406 -6.0625 6.941406 -4.796875 C 6.941406 -3.53125 6.117188 -2.242188 4.496094 -2.242188 Z M 4.496094 -2.242188 "/></g></g></g></svg>